<svg id="Group_21195" data-name="Group 21195" xmlns="http://www.w3.org/2000/svg" width="82.594" height="78.571" viewBox="0 0 82.594 78.571">
  <defs>
    <style>
      .cls-1 {
        fill: #e7151f;
      }
    </style>
  </defs>
  <path id="Path_101893" data-name="Path 101893" class="cls-1" d="M15.32,11.4c-2.579-.519-3.485-1.207-3.622-2.751a2.775,2.775,0,0,1,2.149-2.727,3.112,3.112,0,0,1,3.611,1.247c.812,1.261.64,1.935-1.1,3.885,2.269,3.1,4.049,6.631,7.283,9.019,3.26,2.407,6.446,1.882,8.394-1.7a46.654,46.654,0,0,0,2.8-7.3c.511-1.5.806-3.072,1.212-4.666-1.887-.91-3.312-1.962-2.683-4.181A3.366,3.366,0,0,1,36.863,0a3.5,3.5,0,0,1,3.279,2.317C40.77,4.608,39.022,5.449,37.4,6.4c1,4.092,1.8,8.185,3.972,11.816,2.272,3.79,4.18,4.218,7.878,1.737a23.466,23.466,0,0,0,7.807-8.775c-1.1-1.306-2.294-2.626-.834-4.363a3.235,3.235,0,0,1,3.765-.731,2.562,2.562,0,0,1,1.742,2.628c-.147,1.458-1.174,2.234-3.7,2.694-.847,3.019-1.674,6.135-1.247,9.37.421,3.19,3.025,4.913,6.117,3.384a21.613,21.613,0,0,0,6.369-5.115,12.849,12.849,0,0,1-.453-1.224,2.013,2.013,0,0,1,1.325-2.567,2.338,2.338,0,0,1,2.936.988,2.081,2.081,0,0,1-1.315,2.99,12.5,12.5,0,0,1-1.773.262c-3.913,4.042-9.472,18.694-9.472,18.694L37.662,24.706,12.808,38.182S5.375,21.7,3.746,19.529a18.51,18.51,0,0,1-1.919-.26A2.114,2.114,0,0,1,.1,16.614a2.472,2.472,0,0,1,3.1-1.385,2,2,0,0,1,1.371,2.792c-.1.275-.242.535-.4.866a20.263,20.263,0,0,0,5.79,4.982,8.615,8.615,0,0,0,1.312.559c2.889.984,4.99-.364,5.3-3.389A21.666,21.666,0,0,0,15.32,11.4" transform="translate(0 36.663) rotate(-30)"/>
  <path id="Path_101894" data-name="Path 101894" class="cls-1" d="M6320.344,3384.365l14.691-20.853,26.067-3.2,3.91,29.029-21.684,16.114-25.829-17.3Z" transform="translate(-6290.421 -3326.884)"/>
</svg>
