<svg xmlns="http://www.w3.org/2000/svg" width="17.7" height="17.7" viewBox="0 0 17.7 17.7">
  <defs>
    <style>
      .cls-1 {
        stroke: #f5f5f5;
        stroke-width: 0.2px;
      }
    </style>
  </defs>
  <g id="Layer_1" transform="translate(-1.9 -1.9)">
    <g id="Group_21803" data-name="Group 21803" transform="translate(11.375 10.125)">
      <path id="Path_102042" data-name="Path 102042" class="cls-1" d="M23.582,24.375H18.543A1.545,1.545,0,0,1,17,22.832V16.543A1.545,1.545,0,0,1,18.543,15h5.039a1.545,1.545,0,0,1,1.543,1.543v6.289A1.545,1.545,0,0,1,23.582,24.375ZM18.543,16.25a.293.293,0,0,0-.293.293v6.289a.293.293,0,0,0,.293.293h5.039a.293.293,0,0,0,.293-.293V16.543a.293.293,0,0,0-.293-.293Z" transform="translate(-17 -15)"/>
    </g>
    <g id="Group_21804" data-name="Group 21804" transform="translate(11.375 2)">
      <path id="Path_102043" data-name="Path 102043" class="cls-1" d="M23.582,8.875H18.543A1.545,1.545,0,0,1,17,7.332V3.543A1.545,1.545,0,0,1,18.543,2h5.039a1.545,1.545,0,0,1,1.543,1.543V7.332A1.545,1.545,0,0,1,23.582,8.875ZM18.543,3.25a.293.293,0,0,0-.293.293V7.332a.293.293,0,0,0,.293.293h5.039a.293.293,0,0,0,.293-.293V3.543a.293.293,0,0,0-.293-.293Z" transform="translate(-17 -2)"/>
    </g>
    <g id="Group_21805" data-name="Group 21805" transform="translate(2 2)">
      <path id="Path_102044" data-name="Path 102044" class="cls-1" d="M8.582,11.375H3.543A1.545,1.545,0,0,1,2,9.832V3.543A1.545,1.545,0,0,1,3.543,2H8.582a1.545,1.545,0,0,1,1.543,1.543V9.832A1.545,1.545,0,0,1,8.582,11.375ZM3.543,3.25a.293.293,0,0,0-.293.293V9.832a.293.293,0,0,0,.293.293H8.582a.293.293,0,0,0,.293-.293V3.543a.293.293,0,0,0-.293-.293Z" transform="translate(-2 -2)"/>
    </g>
    <g id="Group_21806" data-name="Group 21806" transform="translate(2 12.625)">
      <path id="Path_102045" data-name="Path 102045" class="cls-1" d="M8.582,25.875H3.543A1.545,1.545,0,0,1,2,24.332V20.543A1.545,1.545,0,0,1,3.543,19H8.582a1.545,1.545,0,0,1,1.543,1.543v3.789A1.545,1.545,0,0,1,8.582,25.875ZM3.543,20.25a.293.293,0,0,0-.293.293v3.789a.293.293,0,0,0,.293.293H8.582a.293.293,0,0,0,.293-.293V20.543a.293.293,0,0,0-.293-.293Z" transform="translate(-2 -19)"/>
    </g>
  </g>
</svg>
