<svg xmlns="http://www.w3.org/2000/svg" width="21.667" height="21.667" viewBox="0 0 21.667 21.667">
  <g id="_x33_1_x2C__order_x2C__box_x2C__delivery_x2C__logistics_x2C__receiving" transform="translate(-16 -16)">
    <g id="Group_21433" data-name="Group 21433" transform="translate(16 16)">
      <g id="Group_21422" data-name="Group 21422" transform="translate(0 0)">
        <path id="Path_101928" data-name="Path 101928" d="M28.42,35.861H16V21.731L19.821,16h4.3v.9H20.3L16.9,22V34.958H28.42Z" transform="translate(-16 -16)"/>
      </g>
      <g id="Group_21423" data-name="Group 21423" transform="translate(11.285 0)">
        <path id="Path_101929" data-name="Path 101929" d="M272.771,27.826V22l-3.4-5.1H266V16h3.853l3.821,5.731v6.095Z" transform="translate(-266 -16)"/>
      </g>
      <g id="Group_21424" data-name="Group 21424" transform="translate(12.187 5.417)">
        <path id="Path_101930" data-name="Path 101930" d="M286,136h6.319v.9H286Z" transform="translate(-286 -136)"/>
      </g>
      <g id="Group_21425" data-name="Group 21425" transform="translate(0.451 5.417)">
        <path id="Path_101931" data-name="Path 101931" d="M26,136h6.319v.9H26Z" transform="translate(-26 -136)"/>
      </g>
      <g id="Group_21426" data-name="Group 21426" transform="translate(6.333 0)">
        <path id="Path_101932" data-name="Path 101932" d="M157.175,21.978l-.876-.219L157.739,16h3.895l.966,5.794-.891.148-.84-5.039h-2.425Z" transform="translate(-156.299 -16)"/>
      </g>
      <g id="Group_21427" data-name="Group 21427" transform="translate(1.806 11.736)">
        <path id="Path_101933" data-name="Path 101933" d="M62.319,282.319H56V276h6.319Zm-5.417-.9h4.514V276.9H56.9Z" transform="translate(-56 -276)"/>
      </g>
      <g id="Group_21428" data-name="Group 21428" transform="translate(3.611 13.542)">
        <path id="Path_101934" data-name="Path 101934" d="M96,316h2.708v.9H96Z" transform="translate(-96 -316)"/>
      </g>
      <g id="Group_21429" data-name="Group 21429" transform="translate(3.611 15.347)">
        <path id="Path_101935" data-name="Path 101935" d="M96,356h2.708v.9H96Z" transform="translate(-96 -356)"/>
      </g>
      <g id="Group_21430" data-name="Group 21430" transform="translate(10.833 10.833)">
        <path id="Path_101936" data-name="Path 101936" d="M261.417,266.833a5.417,5.417,0,0,1,0-10.833,5.358,5.358,0,0,1,2.462.591h0a5.418,5.418,0,0,1-2.462,10.243Zm0-9.931a4.511,4.511,0,1,0,2.051.492h0A4.463,4.463,0,0,0,261.417,256.9Z" transform="translate(-256 -256)"/>
      </g>
      <g id="Group_21431" data-name="Group 21431" transform="translate(6.319 5.417)">
        <path id="Path_101937" data-name="Path 101937" d="M162.319,141.357l-1.806-1.2-1.354.9-1.354-.9-1.806,1.2V136h6.319Zm-4.514-2.289,1.354.9,1.354-.9.9.6V136.9H156.9v2.768Z" transform="translate(-156 -136)"/>
      </g>
      <g id="Group_21432" data-name="Group 21432" transform="translate(13.674 14.577)">
        <path id="Path_101938" data-name="Path 101938" d="M320.6,342.595l-1.673-1.673.638-.638,1.035,1.035,2.389-2.389.638.638Z" transform="translate(-318.929 -338.929)"/>
      </g>
    </g>
  </g>
</svg>
