<svg xmlns="http://www.w3.org/2000/svg" width="18.979" height="19.3" viewBox="0 0 18.979 19.3">
  <defs>
    <style>
      .cls-1 {
        stroke: #fff;
        stroke-width: 0.3px;
      }
    </style>
  </defs>
  <g id="Group_22543" data-name="Group 22543" transform="translate(-1155.849 -57.85)">
    <g id="cart" transform="translate(1155.999 58)">
      <path id="Path_102143" data-name="Path 102143" class="cls-1" d="M20.71,5.738a1.706,1.706,0,0,0-1.267-.565H7.41L7.049,4.082A2.684,2.684,0,0,0,4.506,2.25H3.191a.731.731,0,1,0,0,1.462H4.506a1.218,1.218,0,0,1,1.159.828l.507,1.52.77,6.957A2.671,2.671,0,0,0,9.6,15.4h8.2a2.671,2.671,0,0,0,2.66-2.387l.663-5.953A1.7,1.7,0,0,0,20.7,5.738Zm-1.686,7.123a1.214,1.214,0,0,1-1.208,1.082h-8.2A1.214,1.214,0,0,1,8.4,12.861L7.712,6.635H19.443a.253.253,0,0,1,.185.078.234.234,0,0,1,.058.185l-.663,5.953Z" transform="translate(-2.46 -2.25)"/>
      <path id="Path_102144" data-name="Path 102144" class="cls-1" d="M9.442,17.25a2.192,2.192,0,1,0,2.192,2.192A2.2,2.2,0,0,0,9.442,17.25Zm0,2.923a.731.731,0,1,1,.731-.731A.736.736,0,0,1,9.442,20.173Z" transform="translate(-2.583 -2.635)"/>
      <path id="Path_102145" data-name="Path 102145" class="cls-1" d="M18.442,17.25a2.192,2.192,0,1,0,2.192,2.192A2.2,2.2,0,0,0,18.442,17.25Zm0,2.923a.731.731,0,1,1,.731-.731A.736.736,0,0,1,18.442,20.173Z" transform="translate(-2.814 -2.635)"/>
    </g>
  </g>
</svg>
