<svg xmlns="http://www.w3.org/2000/svg" width="19.57" height="22.431" viewBox="0 0 19.57 22.431">
  <path id="location" d="M13.285,8.589a3.453,3.453,0,1,1-3.453,3.453,3.453,3.453,0,0,1,3.453-3.453m0-1.151a4.6,4.6,0,1,0,4.6,4.6A4.6,4.6,0,0,0,13.285,7.438ZM15.32,23.845l3.219-3.218a.576.576,0,1,0-.814-.814l-3.219,3.218a1.768,1.768,0,0,1-2.442,0L7.18,18.147a8.634,8.634,0,1,1,12.21,0,.576.576,0,1,0,.814.814,9.785,9.785,0,1,0-13.838,0l4.884,4.884a2.877,2.877,0,0,0,4.07,0Z" transform="translate(-3.5 -2.257)"/>
</svg>
