<svg xmlns="http://www.w3.org/2000/svg" width="17.5" height="17.5" viewBox="0 0 17.5 17.5">
  <defs>
    <style>
      .cls-1 {
        stroke: #fff;
        stroke-width: 0.5px;
      }
    </style>
  </defs>
  <g id="layer1" transform="translate(-0.279 -290.929)">
    <path id="path52" class="cls-1" d="M9.02,291.179a.852.852,0,0,0-.842.864v6.832a.851.851,0,1,0,1.7,0v-6.832a.852.852,0,0,0-.86-.864Zm4.959,1.713q-.042,0-.083,0a.855.855,0,0,0-.471,1.508,6.8,6.8,0,1,1-8.816.025.857.857,0,0,0,.095-1.2.848.848,0,0,0-1.2-.1,8.563,8.563,0,0,0,5.529,15.052A8.563,8.563,0,0,0,14.524,293.1a.848.848,0,0,0-.545-.21Z" transform="translate(0 0)"/>
  </g>
</svg>
