<svg xmlns="http://www.w3.org/2000/svg" width="39" height="39" viewBox="0 0 39 39">
  <g id="_x33_1_x2C__order_x2C__box_x2C__delivery_x2C__logistics_x2C__receiving" transform="translate(-16 -16)">
    <g id="Group_21433" data-name="Group 21433" transform="translate(16 16)">
      <g id="Group_21422" data-name="Group 21422" transform="translate(0 0)">
        <path id="Path_101928" data-name="Path 101928" d="M38.355,51.75H16V26.317L22.878,16h7.747v1.625H23.747l-6.122,9.183V50.125h20.73Z" transform="translate(-16 -16)"/>
      </g>
      <g id="Group_21423" data-name="Group 21423" transform="translate(20.312 0)">
        <path id="Path_101929" data-name="Path 101929" d="M278.188,37.287V26.808l-6.122-9.183H266V16h6.935l6.878,10.317v10.97Z" transform="translate(-266 -16)"/>
      </g>
      <g id="Group_21424" data-name="Group 21424" transform="translate(21.937 9.75)">
        <path id="Path_101930" data-name="Path 101930" d="M286,136h11.375v1.625H286Z" transform="translate(-286 -136)"/>
      </g>
      <g id="Group_21425" data-name="Group 21425" transform="translate(0.812 9.75)">
        <path id="Path_101931" data-name="Path 101931" d="M26,136H37.375v1.625H26Z" transform="translate(-26 -136)"/>
      </g>
      <g id="Group_21426" data-name="Group 21426" transform="translate(11.399 0)">
        <path id="Path_101932" data-name="Path 101932" d="M157.875,26.76l-1.576-.394L158.89,16h7.01l1.738,10.429-1.6.267-1.512-9.071h-4.365Z" transform="translate(-156.299 -16)"/>
      </g>
      <g id="Group_21427" data-name="Group 21427" transform="translate(3.25 21.125)">
        <path id="Path_101933" data-name="Path 101933" d="M67.375,287.375H56V276H67.375Zm-9.75-1.625H65.75v-8.125H57.625Z" transform="translate(-56 -276)"/>
      </g>
      <g id="Group_21428" data-name="Group 21428" transform="translate(6.5 24.375)">
        <path id="Path_101934" data-name="Path 101934" d="M96,316h4.875v1.625H96Z" transform="translate(-96 -316)"/>
      </g>
      <g id="Group_21429" data-name="Group 21429" transform="translate(6.5 27.625)">
        <path id="Path_101935" data-name="Path 101935" d="M96,356h4.875v1.625H96Z" transform="translate(-96 -356)"/>
      </g>
      <g id="Group_21430" data-name="Group 21430" transform="translate(19.5 19.5)">
        <path id="Path_101936" data-name="Path 101936" d="M265.75,275.5a9.75,9.75,0,0,1,0-19.5,9.644,9.644,0,0,1,4.432,1.063h0A9.752,9.752,0,0,1,265.75,275.5Zm0-17.875a8.119,8.119,0,1,0,3.693.885h0A8.033,8.033,0,0,0,265.75,257.625Z" transform="translate(-256 -256)"/>
      </g>
      <g id="Group_21431" data-name="Group 21431" transform="translate(11.375 9.75)">
        <path id="Path_101937" data-name="Path 101937" d="M167.375,145.643l-3.25-2.167-2.437,1.625-2.438-1.625L156,145.643V136h11.375Zm-8.125-4.12,2.438,1.625,2.437-1.625,1.625,1.083v-4.982h-8.125v4.982Z" transform="translate(-156 -136)"/>
      </g>
      <g id="Group_21432" data-name="Group 21432" transform="translate(24.613 26.238)">
        <path id="Path_101938" data-name="Path 101938" d="M321.941,345.528l-3.012-3.012,1.149-1.149,1.863,1.863,4.3-4.3,1.149,1.149Z" transform="translate(-318.929 -338.929)"/>
      </g>
    </g>
  </g>
</svg>
