<svg xmlns="http://www.w3.org/2000/svg" width="35.619" height="34" viewBox="0 0 35.619 34">
  <g id="g3124" transform="translate(-2 -63)">
    <path id="path3071" d="M5.238,63A3.249,3.249,0,0,0,2,66.238V87.286a3.249,3.249,0,0,0,3.238,3.238H16.02a.81.81,0,0,0,0-1.619H5.238a1.6,1.6,0,0,1-1.619-1.619V68.667h8.1v7.286a.81.81,0,0,0,1.382.572l2.666-2.666,2.666,2.666a.81.81,0,0,0,1.382-.572V68.667h8.1v6.558a.81.81,0,0,0,1.619,0V66.238A3.249,3.249,0,0,0,26.286,63Zm0,1.619h6.476v2.429h-8.1v-.81A1.6,1.6,0,0,1,5.238,64.619Zm8.1,0H18.19V74l-1.856-1.856a.81.81,0,0,0-1.145,0L13.333,74Zm6.476,0h6.476A1.6,1.6,0,0,1,27.9,66.238v.81h-8.1Z"/>
    <path id="path3075" d="M7.81,86a.81.81,0,0,0,0,1.619h4.857a.81.81,0,0,0,0-1.619Z" transform="translate(-0.952 -4.381)"/>
    <path id="path3077" d="M7.81,90a.81.81,0,0,0,0,1.619H15.1A.81.81,0,0,0,15.1,90Z" transform="translate(-0.952 -5.143)"/>
    <path id="circle3079" d="M17.619,86.81a.81.81,0,1,1-.81-.81A.81.81,0,0,1,17.619,86.81Z" transform="translate(-2.667 -4.381)"/>
    <path id="circle3089" d="M31.714,81a9.714,9.714,0,1,0,9.714,9.714A9.727,9.727,0,0,0,31.714,81Zm0,1.619a8.1,8.1,0,1,1-8.1,8.1A8.083,8.083,0,0,1,31.714,82.619Z" transform="translate(-3.81 -3.429)"/>
    <path id="path3103" d="M33.759,88.955a.81.81,0,0,0-.81.81v3.311a.81.81,0,0,0,.809.81h2.47a.81.81,0,1,0,0-1.619h-1.66v-2.5a.81.81,0,0,0-.81-.81Z" transform="translate(-5.895 -4.944)"/>
    <path id="circle3112" d="M32.476,85a6.476,6.476,0,1,0,6.476,6.476A6.489,6.489,0,0,0,32.476,85Zm0,1.619a4.857,4.857,0,1,1-4.857,4.857A4.845,4.845,0,0,1,32.476,86.619Z" transform="translate(-4.571 -4.19)"/>
  </g>
</svg>
