<svg xmlns="http://www.w3.org/2000/svg" width="13.401" height="16.5" viewBox="0 0 13.401 16.5">
  <g id="delete_1_" data-name="delete (1)" transform="translate(0.003 0.001)">
    <path id="Path_102050" data-name="Path 102050" d="M222.784,154.7a.386.386,0,0,0-.386.386v7.3a.386.386,0,1,0,.773,0v-7.3A.386.386,0,0,0,222.784,154.7Zm0,0" transform="translate(-213.808 -148.727)"/>
    <path id="Path_102051" data-name="Path 102051" d="M104.784,154.7a.386.386,0,0,0-.386.386v7.3a.386.386,0,1,0,.773,0v-7.3A.386.386,0,0,0,104.784,154.7Zm0,0" transform="translate(-100.367 -148.727)"/>
    <path id="Path_102052" data-name="Path 102052" d="M1.094,4.911v9.52a2.132,2.132,0,0,0,.567,1.47,1.9,1.9,0,0,0,1.381.6h7.311a1.9,1.9,0,0,0,1.381-.6,2.132,2.132,0,0,0,.567-1.47V4.911a1.476,1.476,0,0,0-.379-2.9H9.943V1.525A1.518,1.518,0,0,0,8.413,0H4.981a1.518,1.518,0,0,0-1.53,1.526v.483H1.473a1.476,1.476,0,0,0-.379,2.9Zm9.258,10.815H3.042a1.224,1.224,0,0,1-1.175-1.294V4.945h9.66v9.486a1.224,1.224,0,0,1-1.175,1.294ZM4.224,1.525A.744.744,0,0,1,4.981.771H8.413a.744.744,0,0,1,.757.753v.483H4.224ZM1.473,2.781H11.921a.7.7,0,1,1,0,1.391H1.473a.7.7,0,1,1,0-1.391Zm0,0" transform="translate(0)"/>
    <path id="Path_102053" data-name="Path 102053" d="M163.784,154.7a.386.386,0,0,0-.386.386v7.3a.386.386,0,1,0,.773,0v-7.3A.386.386,0,0,0,163.784,154.7Zm0,0" transform="translate(-157.087 -148.727)"/>
  </g>
</svg>
