<svg xmlns="http://www.w3.org/2000/svg" width="13.072" height="13.006" viewBox="0 0 13.072 13.006">
  <g id="edit" transform="translate(0 -0.261)">
    <path id="Path_102149" data-name="Path 102149" d="M12.065,46.067a.326.326,0,0,0-.326.326v2.891a.978.978,0,0,1-.977.977H1.628a.978.978,0,0,1-.977-.977V40.8a.978.978,0,0,1,.977-.977H4.518a.326.326,0,1,0,0-.651H1.628A1.63,1.63,0,0,0,0,40.8v8.484a1.63,1.63,0,0,0,1.628,1.628h9.135a1.63,1.63,0,0,0,1.628-1.628V46.393a.326.326,0,0,0-.326-.326Zm0,0" transform="translate(0 -37.645)"/>
    <path id="Path_102150" data-name="Path 102150" d="M116.929.69a1.465,1.465,0,0,0-2.072,0L109.049,6.5a.325.325,0,0,0-.084.143L108.2,9.4a.325.325,0,0,0,.4.4l2.757-.764a.325.325,0,0,0,.143-.084l5.808-5.808a1.467,1.467,0,0,0,0-2.072Zm-7.17,6.02,4.753-4.754,1.533,1.533-4.754,4.754Zm-.306.614,1.225,1.225-1.694.469Zm7.4-4.641-.345.345L114.972,1.5l.345-.345a.814.814,0,0,1,1.151,0l.382.382A.815.815,0,0,1,116.851,2.683Zm0,0" transform="translate(-104.668 0)"/>
  </g>
</svg>
