<svg xmlns="http://www.w3.org/2000/svg" xmlns:xlink="http://www.w3.org/1999/xlink" width="123.665" height="108.728" viewBox="0 0 123.665 108.728">
  <defs>
    <style>
      .cls-1 {
        fill: none;
      }

      .cls-2 {
        clip-path: url(#clip-path);
      }

      .cls-3 {
        fill: #fff;
      }

      .cls-4 {
        fill: #ed0b00;
      }

      .cls-5 {
        fill: #ddd;
      }

      .cls-6 {
        mix-blend-mode: multiply;
        isolation: isolate;
      }

      .cls-7 {
        clip-path: url(#clip-path-2);
      }

      .cls-8 {
        fill: #333;
      }
    </style>
    <clipPath id="clip-path">
      <rect id="Rectangle_1115" data-name="Rectangle 1115" class="cls-1" width="123.665" height="108.728"/>
    </clipPath>
    <clipPath id="clip-path-2">
      <rect id="Rectangle_1114" data-name="Rectangle 1114" class="cls-1" width="77.111" height="65.411"/>
    </clipPath>
  </defs>
  <g id="Group_21510" data-name="Group 21510" transform="translate(-21 -18)">
    <g id="Group_21513" data-name="Group 21513" class="cls-2" transform="translate(21 18)">
      <path id="Path_101971" data-name="Path 101971" class="cls-3" d="M1153.275,1081.6l-6.324,20.8a3.228,3.228,0,0,1-3.089,2.29h-38.286l-.167-.682-6.335-25.9-.167-.682h51.278a3.229,3.229,0,0,1,3.089,4.168" transform="translate(-1058.372 -1037.684)"/>
      <path id="Path_101972" data-name="Path 101972" class="cls-3" d="M592.13,716.456a2.5,2.5,0,0,0-1.148-.278H555.341l-.128,0a2.934,2.934,0,0,1-2.636-1.931,2.874,2.874,0,0,1-.094-.311l-.568-2.322-.167-.682-.167-.682-6.334-25.9-.167-.682-.167-.682-1.882-7.693-.155-.632a7.978,7.978,0,0,0-7.74-6.075H525.65a2.512,2.512,0,0,0-.006,5.025h9.492A2.937,2.937,0,0,1,538,675.857l.206.844,9.4,38.429q.063.256.142.506a7.959,7.959,0,0,0,6.169,5.437q.38.07.766.1h0q.33.028.662.028h35.642a2.515,2.515,0,0,0,2.512-2.512v-.006a2.515,2.515,0,0,0-1.365-2.229m-1.148,4.065H555.341a7.316,7.316,0,0,1-4.5-1.554c-.035-.027-.069-.054-.1-.082l-.047-.038h0l-.024-.02-.08-.068-.1-.083-.094-.086a7.093,7.093,0,0,1-.539-.555l-.094-.11-.068-.082q-.1-.128-.2-.26c-.024-.031-.047-.063-.069-.095l-.022-.031-.062-.09-.02-.029-.075-.112h0c-.027-.04-.053-.081-.078-.122s-.051-.082-.076-.124-.049-.083-.073-.125l-.071-.127-.069-.128,0,0q-.133-.256-.246-.522-.085-.2-.158-.407c-.014-.038-.027-.076-.04-.115l-.011-.034c-.012-.036-.024-.073-.036-.111l-.01-.032-.034-.114c-.015-.051-.029-.1-.042-.152s-.025-.094-.036-.142l-9.606-39.272c-.013-.051-.026-.1-.041-.151,0-.013-.007-.026-.011-.038s-.01-.034-.016-.05-.017-.052-.026-.078-.016-.045-.024-.068-.017-.045-.026-.068-.014-.036-.021-.054l-.005-.013-.021-.049-.018-.041-.008-.019-.03-.065c-.011-.024-.023-.049-.035-.073s-.024-.048-.037-.071-.021-.041-.033-.061-.03-.054-.045-.08q-.04-.069-.084-.136l-.044-.066c-.018-.027-.036-.053-.055-.079l-.017-.023c-.018-.026-.038-.051-.057-.076l0,0-.062-.078-.01-.012-.065-.077c-.024-.027-.048-.054-.073-.081l-.075-.079-.077-.076-.069-.064-.024-.021-.069-.06-.071-.059q-.055-.044-.112-.086l-.064-.046-.017-.012-.077-.053-.02-.013-.072-.045-.01-.006-.087-.052,0,0-.08-.045-.115-.06-.066-.031-.059-.027-.088-.038-.059-.024-.07-.027-.06-.022-.011,0-.065-.022-.01,0-.063-.02-.079-.023-.07-.019a3.533,3.533,0,0,0-.353-.073l-.049-.007-.046-.006-.066-.008h-.011l-.077-.007-.077-.006c-.077,0-.155-.007-.234-.007H525.6c-.03,0-.06,0-.09,0l-.09-.009-.046-.006-.02,0-.032-.005c-.036-.007-.072-.014-.108-.023l-.028-.007-.077-.022-.043-.014-.041-.014c-.033-.012-.066-.025-.1-.039l-.058-.026-.049-.024-.025-.013-.046-.025-.056-.034-.055-.035-.054-.037-.051-.038a1.815,1.815,0,0,1-.235-.217l-.021-.024c-.022-.025-.043-.051-.064-.077l-.017-.022c-.025-.032-.048-.065-.07-.1-.01-.014-.019-.028-.028-.043l-.033-.055-.018-.032-.006-.012-.018-.034-.022-.044c-.008-.017-.016-.034-.024-.052s-.019-.044-.028-.066l-.009-.023-.013-.036c-.014-.039-.027-.08-.038-.121l-.008-.028c-.006-.023-.011-.045-.016-.069s-.007-.034-.01-.051-.008-.044-.011-.065c0,0,0-.008,0-.012s0-.03-.006-.046,0-.018,0-.027,0-.036-.005-.055,0-.046,0-.07,0-.047,0-.07a1.83,1.83,0,0,1,1.83-1.83h9.486a7.315,7.315,0,0,1,4.5,1.555l.1.083.027.022.084.071.106.092.045.04.075.069.062.058.014.014q.048.044.094.091l.061.061.014.014.065.067c.025.025.048.05.072.076q.079.084.155.171l.048.056.026.031.05.06h0l.065.079.041.051.052.066.1.128.035.048.044.06.032.045c.025.035.05.072.074.108l.063.1.044.068.048.076.061.1q.079.132.152.269l.048.091.047.092q.07.138.134.279c.028.063.056.126.083.19l.039.1c.013.032.026.064.038.1l.035.09c.013.035.026.07.038.106s.017.049.026.073c.025.073.049.146.071.219l.025.083c.012.042.024.085.036.127s.016.059.024.089.017.067.025.1l2,8.162.167.682.167.682,6.335,25.9.167.682.167.682.608,2.484c.006.025.013.051.02.076s.013.048.02.071.008.03.013.045.01.031.014.047c.012.037.024.073.037.11l.014.041.017.045a.165.165,0,0,0,.007.019c.007.02.015.039.023.059l0,.008.025.059a3.592,3.592,0,0,0,.209.411l.027.044.03.048.043.066c.024.036.049.072.074.107l.033.045q.075.1.157.2l.04.046.063.069.042.044.015.015.049.05.048.047c.043.041.087.08.132.119l.055.046.013.011.117.091.017.013.055.04.067.047h0l.055.037.056.036.114.069.058.033.059.032.059.031.06.03.061.028.06.027.063.027.125.049.063.023.063.022.061.02.006,0,.044.013.083.024.06.016c.089.023.18.042.271.057l.068.011.041.006.049.007.076.009.063.006.1.008.059,0h35.876l.069,0,.055.005.027,0,.061.008.062.011.051.01.069.016.028.008c.041.011.081.024.121.038l.036.013.023.009.065.027.052.024.045.022.023.012.035.019.02.011.051.031.055.035.054.038.049.037.01.007.044.036.047.041c.02.017.039.035.057.053l.031.031c.02.021.04.042.059.064l.036.042.035.042.011.014.035.047.043.063.024.038c.012.019.023.038.035.058l.015.027.012.023.014.027h0c.008.016.016.031.023.047s.018.04.027.06l.017.042c.006.014.011.028.017.042l.016.043c.005.014.01.029.014.044s.009.027.013.041v0c0,.014.008.029.012.044s.005.02.008.031c.009.035.016.07.023.105q0,.016.006.032l0,.02c0,.015,0,.03.006.046,0,.031.007.061.01.092s0,.058,0,.087,0,.036,0,.054a1.83,1.83,0,0,1-1.83,1.83" transform="translate(-503.841 -643.925)"/>
      <path id="Path_101973" data-name="Path 101973" class="cls-4" d="M610.63,736.51a1.83,1.83,0,0,1-1.83,1.83H573.159a7.286,7.286,0,0,1-7.077-5.555l-9.606-39.272a3.617,3.617,0,0,0-3.522-2.764h-9.486a1.83,1.83,0,1,1,0-3.66h9.486a7.286,7.286,0,0,1,7.077,5.555l2,8.162.167.682.167.682,6.335,25.9.167.682.167.682.607,2.484a3.617,3.617,0,0,0,3.522,2.764H608.8a1.83,1.83,0,0,1,1.83,1.83" transform="translate(-521.658 -661.744)"/>
      <path id="Path_101974" data-name="Path 101974" class="cls-5" d="M1295.923,2107.358a6.192,6.192,0,1,1,6.192-6.192,6.2,6.2,0,0,1-6.192,6.192" transform="translate(-1242.156 -2017.695)"/>
      <path id="Path_101975" data-name="Path 101975" class="cls-5" d="M2017.172,2107.358a6.192,6.192,0,1,1,6.192-6.192,6.2,6.2,0,0,1-6.192,6.192" transform="translate(-1936.8 -2017.695)"/>
      <g id="Group_21512" data-name="Group 21512" class="cls-6" transform="translate(19.569 24.935)">
        <g id="Group_21511" data-name="Group 21511">
          <g id="Group_21510-2" data-name="Group 21510" class="cls-7">
            <path id="Path_101976" data-name="Path 101976" class="cls-5" d="M599.712,718.9a3.884,3.884,0,0,0,1.413-2l6.324-20.8a3.915,3.915,0,0,0-1.5-4.341,3.841,3.841,0,0,0-.444-.27,3.935,3.935,0,0,0-1.8-.437h-50.04l-.066-.272-.167-.682-1.842-7.532a8.692,8.692,0,0,0-2.789-4.526q-.134-.114-.273-.223a8.678,8.678,0,0,0-5.341-1.846H533.7a3.2,3.2,0,0,0-3.195,3.195c0,.065,0,.13.006.193a3.2,3.2,0,0,0,3.189,3h9.486A2.254,2.254,0,0,1,545.3,683.8a2.234,2.234,0,0,1,.085.273l9.456,38.662.149.61a8.635,8.635,0,0,0,5.191,5.974c.249.1.5.188.76.263s.546.148.824.2h0a6.89,6.89,0,0,0-2.439,2.989,6.831,6.831,0,0,0-.541,2.677,6.9,6.9,0,0,0,.1,1.148h0a6.867,6.867,0,0,0,1.464,3.213q.081.1.167.195.138.157.287.305a6.854,6.854,0,0,0,1.365,1.059h6.994a6.843,6.843,0,0,0,1.364-1.059c.1-.1.2-.2.288-.305a6.87,6.87,0,0,0-.288-9.417q-.24-.24-.5-.453-.122-.1-.248-.2h18.38a6.932,6.932,0,0,0-.749.649,6.89,6.89,0,0,0-1.918,6.009h0a6.868,6.868,0,0,0,1.464,3.213c.054.066.11.131.166.195q.139.157.288.305a6.853,6.853,0,0,0,1.364,1.059h6.994a6.841,6.841,0,0,0,1.364-1.059q.149-.149.288-.305a6.87,6.87,0,0,0-.288-9.417q-.24-.24-.5-.453-.122-.1-.249-.2h2.657a3.195,3.195,0,0,0,.193-6.384c-.064,0-.128-.006-.193-.006H563.393a2.258,2.258,0,0,1-2.2-1.723l-.528-2.16h36.714a3.883,3.883,0,0,0,2.329-.769m-39.443-.868-.167-.682L554,692.4h49.706a2.525,2.525,0,0,1,1.257.33,2.565,2.565,0,0,1,1.014,1.065h0a2.522,2.522,0,0,1,.165,1.891l-6.324,20.8a2.547,2.547,0,0,1-2.436,1.806H560.336Zm3.456,22.58a5.51,5.51,0,1,1,7.1-7.1h0a5.513,5.513,0,0,1-7.1,7.1m26.6,0a5.52,5.52,0,1,1,1.936.35,5.479,5.479,0,0,1-1.936-.35m10.535-13.865a1.83,1.83,0,0,1-1.83,1.83H563.393q-.228,0-.456-.015h0a7.255,7.255,0,0,1-1.321-.208q-.307-.077-.606-.181a7.243,7.243,0,0,1-3.219-2.226h0a7.321,7.321,0,0,1-1.474-2.925l-9.606-39.272A3.616,3.616,0,0,0,543.5,681q-.156-.014-.314-.014H533.7a1.83,1.83,0,1,1,0-3.66h9.486a7.315,7.315,0,0,1,4.5,1.555q.075.059.148.12h0a7.323,7.323,0,0,1,2.293,3.395q.077.24.137.485l1.763,7.207.167.682.066.272.1.411.066.272.167.682,6.1,24.943.167.682.066.272.1.411.066.272.167.682.411,1.678.2.806a3.621,3.621,0,0,0,.525,1.182h0a3.616,3.616,0,0,0,3,1.581h35.641a1.829,1.829,0,0,1,1.83,1.83" transform="translate(-530.508 -675.958)"/>
          </g>
        </g>
      </g>
      <path id="Path_101977" data-name="Path 101977" class="cls-8" d="M1149.671,1062.126a3.933,3.933,0,0,0-.648-1.537c-.018-.027-.038-.053-.057-.08a3.9,3.9,0,0,0-3.142-1.582h-51.445l.167.682.167.682h51.112a2.547,2.547,0,0,1,2.436,3.287l-6.324,20.8a2.546,2.546,0,0,1-2.436,1.806h-38.453l.167.682.167.682h38.12a3.912,3.912,0,0,0,3.742-2.774l6.323-20.8a3.928,3.928,0,0,0,.105-1.85" transform="translate(-1054.009 -1019.867)"/>
      <path id="Path_101978" data-name="Path 101978" class="cls-8" d="M575.85,699.144a3.2,3.2,0,0,0-2.685-1.464H537.523a2.255,2.255,0,0,1-2.2-1.724l-.528-2.16-.167-.682-.167-.682-6.335-25.9-.167-.682-.167-.682-2.076-8.486a8.65,8.65,0,0,0-8.4-6.6h-9.486a3.195,3.195,0,0,0,0,6.39h9.486a2.255,2.255,0,0,1,2.2,1.723l9.606,39.272A8.694,8.694,0,0,0,531.909,702c.09.077.181.151.274.224a8.686,8.686,0,0,0,3.712,1.689h0a8.646,8.646,0,0,0,1.1.14h0q.262.016.525.016h35.641a3.194,3.194,0,0,0,2.685-4.925m-43.807,1.073-.094-.11-.068-.082q-.1-.128-.2-.26c-.024-.031-.047-.063-.069-.095l-.023-.031c-.021-.03-.042-.06-.062-.09l-.02-.029-.075-.112h0c-.027-.04-.053-.081-.078-.122s-.051-.082-.076-.124-.049-.083-.073-.125-.048-.084-.071-.127-.046-.085-.069-.128l0,0q-.133-.256-.246-.522-.085-.2-.158-.407c-.014-.038-.027-.076-.04-.115l-.011-.033-.036-.111-.01-.032c-.011-.038-.023-.076-.034-.114s-.029-.1-.042-.152-.025-.094-.036-.142l-9.606-39.272c-.013-.051-.026-.1-.041-.151l-.011-.038c0-.017-.01-.034-.016-.051s-.017-.052-.026-.078-.016-.045-.024-.067-.017-.045-.026-.068-.014-.036-.021-.054l-.005-.013-.021-.049-.018-.041-.009-.019-.03-.065c-.011-.024-.023-.049-.035-.073l-.037-.072c-.011-.02-.021-.041-.033-.061s-.03-.053-.045-.08q-.04-.069-.084-.136l-.044-.067c-.018-.026-.036-.053-.055-.078l-.017-.023c-.018-.026-.038-.051-.057-.076l0,0-.062-.078-.01-.012-.065-.077c-.024-.027-.048-.054-.073-.081l-.075-.079-.077-.076-.069-.064-.024-.021-.069-.06-.071-.059q-.055-.044-.112-.086l-.064-.046-.017-.012-.077-.053-.02-.013-.072-.045-.01-.006-.087-.052h0l-.08-.045-.115-.06-.066-.031-.059-.027-.088-.038-.059-.024-.07-.027-.06-.022-.011,0-.065-.022-.01,0-.063-.02-.079-.023-.07-.019a3.515,3.515,0,0,0-.353-.073l-.049-.007-.046-.006-.066-.008h-.011l-.077-.007-.078-.006q-.116-.007-.234-.007H507.78c-.03,0-.06,0-.09,0l-.09-.009-.046-.006-.02,0-.032-.005c-.036-.007-.072-.014-.108-.023l-.028-.007-.077-.022-.043-.014-.041-.014c-.033-.012-.066-.025-.1-.039l-.058-.026-.049-.024-.025-.013-.046-.025-.056-.034-.055-.035-.054-.037-.051-.038a1.81,1.81,0,0,1-.235-.217l-.021-.024c-.023-.025-.044-.051-.064-.077l-.017-.022c-.025-.032-.048-.065-.07-.1l-.028-.043-.033-.055-.018-.032-.006-.012-.018-.034-.022-.044c-.008-.017-.016-.034-.024-.052s-.019-.044-.028-.066l-.009-.023-.013-.036c-.014-.039-.027-.08-.038-.121l-.008-.028c-.006-.023-.011-.045-.016-.069s-.007-.034-.01-.051-.008-.044-.011-.065c0,0,0-.008,0-.012s0-.03-.006-.046,0-.018,0-.027,0-.036-.005-.055,0-.046,0-.07,0-.047,0-.07a1.83,1.83,0,0,1,1.83-1.83h9.486a7.316,7.316,0,0,1,4.5,1.554l.1.083.027.022.084.071.106.092.045.04.075.069.062.058.014.014c.032.029.063.06.094.091l.061.061.014.014.065.067c.025.025.048.05.072.076.052.056.1.113.155.171l.048.056.026.031.05.06h0l.065.079.041.051.052.066.1.128.035.048.044.061.032.045c.025.035.05.072.074.108l.063.1.044.068.048.076.061.1q.079.132.152.269l.048.091.047.092q.07.138.134.279c.028.063.056.126.083.19l.039.1c.013.032.026.064.038.1l.035.09c.013.035.026.07.038.106s.017.049.025.073c.025.073.049.146.071.219.008.027.017.055.025.083s.024.085.036.127.016.059.024.089.017.067.025.1l2,8.162.167.682.167.682,6.335,25.9.167.682.167.682.608,2.484c.006.026.013.051.02.076s.013.048.02.071.008.03.013.045.01.031.014.047c.012.037.024.073.037.109l.014.041.017.045a.159.159,0,0,0,.007.019c.007.02.015.039.023.059l0,.008c.008.02.016.039.025.059a3.586,3.586,0,0,0,.209.411l.027.044.03.048.043.066c.024.036.049.072.074.107l.033.045q.075.1.157.2l.04.046c.021.024.042.046.063.069l.042.044.015.015.049.05.048.047c.043.041.087.08.132.119l.055.047.013.011q.057.047.117.091l.017.013.055.04.067.047h0l.055.036.056.036.114.069.058.033.059.032.059.031.06.029.061.029.06.027.063.027.125.049.063.023.063.022.061.02.006,0,.044.013.083.024.061.016c.089.023.18.042.271.057l.068.011.041.006.049.007.076.009.063.006.1.008.059,0h35.876l.069,0,.055.005.027,0,.061.009.062.011.051.01.069.016.028.008c.041.011.081.024.121.038l.036.013.023.009.065.027.052.024.045.022.023.012.035.019.02.011.051.031.055.035.054.038.049.037.01.007.044.036.047.041c.02.017.039.035.057.053l.031.031c.02.021.04.042.059.064l.036.042.035.042.011.014.035.047c.015.021.029.041.043.063l.024.038.035.058.015.027.012.022.014.027h0c.008.016.016.031.023.047s.018.04.027.06l.017.042c.006.014.011.028.017.042s.011.029.016.043.01.029.014.044.009.027.013.041v0l.012.044c0,.01.005.02.008.031.008.035.016.07.022.105,0,.011,0,.021.006.032l0,.02c0,.015,0,.03.006.046,0,.031.007.061.01.092s0,.058,0,.087,0,.036,0,.053a1.83,1.83,0,0,1-1.83,1.83H537.523a7.316,7.316,0,0,1-4.5-1.554c-.035-.027-.069-.054-.1-.082l-.047-.038h0l-.024-.02-.08-.068-.1-.083-.094-.086a7.084,7.084,0,0,1-.539-.555" transform="translate(-486.023 -626.109)"/>
      <path id="Path_101979" data-name="Path 101979" class="cls-8" d="M1284.437,2080.667a6.821,6.821,0,0,0-1.018-1.684c-.054-.066-.11-.131-.167-.2q-.138-.157-.287-.305a6.916,6.916,0,0,0-.748-.649,6.815,6.815,0,0,0-.616-.41q-.248-.146-.508-.272c-.1-.049-.207-.1-.312-.141a6.89,6.89,0,0,0-5.353,0q-.128.054-.253.114h0l-.16.078a6.855,6.855,0,0,0-.805.477h0a6.932,6.932,0,0,0-.629.49q-.173.151-.337.315a6.871,6.871,0,0,0,0,9.722q.24.24.5.454c.081.067.164.132.248.195a6.874,6.874,0,0,0,8.226,0,6.918,6.918,0,0,0,.748-.649,6.879,6.879,0,0,0,1.473-7.538m-9.723,7.021a5.51,5.51,0,1,1,3.389,1.165,5.5,5.5,0,0,1-3.389-1.165" transform="translate(-1224.336 -1999.873)"/>
      <path id="Path_101980" data-name="Path 101980" class="cls-8" d="M2005.687,2080.667a6.821,6.821,0,0,0-1.018-1.684q-.081-.1-.167-.2c-.093-.1-.188-.206-.287-.305a6.943,6.943,0,0,0-.749-.649,6.7,6.7,0,0,0-.616-.41q-.247-.146-.507-.272-.155-.074-.313-.141a6.89,6.89,0,0,0-5.353,0q-.158.067-.312.141-.26.126-.508.272a6.8,6.8,0,0,0-.616.41,6.916,6.916,0,0,0-.748.649q-.149.149-.287.305a6.869,6.869,0,0,0,.287,9.417q.24.24.5.454c.081.067.164.132.248.195a6.877,6.877,0,0,0,10.447-8.186m-9.723,7.021a5.511,5.511,0,1,1,3.389,1.165,5.5,5.5,0,0,1-3.389-1.165" transform="translate(-1918.981 -1999.873)"/>
      <path id="Path_101981" data-name="Path 101981" class="cls-8" d="M833.762,2412.9a.683.683,0,0,1-.682.683H756.03a.682.682,0,0,1,0-1.365h77.049a.682.682,0,0,1,.682.682" transform="translate(-727.485 -2323.238)"/>
      <path id="Path_101982" data-name="Path 101982" class="cls-8" d="M598.56,2413.572h-3.108a.682.682,0,1,1,0-1.365h3.108a.682.682,0,1,1,0,1.365" transform="translate(-572.83 -2323.227)"/>
      <path id="Path_101983" data-name="Path 101983" class="cls-8" d="M973.474,2322.908h-3.108a.682.682,0,1,1,0-1.365h3.108a.682.682,0,0,1,0,1.365" transform="translate(-933.915 -2235.907)"/>
      <path id="Path_101984" data-name="Path 101984" class="cls-8" d="M812.889,2322.908h-3.108a.682.682,0,0,1,0-1.365h3.108a.682.682,0,1,1,0,1.365" transform="translate(-779.253 -2235.907)"/>
      <path id="Path_101985" data-name="Path 101985" class="cls-8" d="M2549.305,2322.908H2546.2a.682.682,0,0,1,0-1.365h3.108a.682.682,0,0,1,0,1.365" transform="translate(-2451.617 -2235.907)"/>
      <path id="Path_101986" data-name="Path 101986" class="cls-8" d="M2709.891,2322.908h-3.108a.682.682,0,1,1,0-1.365h3.108a.682.682,0,0,1,0,1.365" transform="translate(-2606.28 -2235.907)"/>
      <path id="Path_101987" data-name="Path 101987" class="cls-8" d="M2924.22,2413.572h-3.108a.682.682,0,1,1,0-1.365h3.108a.682.682,0,1,1,0,1.365" transform="translate(-2812.703 -2323.227)"/>
    </g>
  </g>
</svg>
