<svg xmlns="http://www.w3.org/2000/svg" width="8" height="8.178" viewBox="0 0 8 8.178">
  <path id="filter" d="M10.24,3.245H4.26a1.012,1.012,0,0,0-.768,1.669L5.856,7.67a.588.588,0,0,1,.137.37v2.578a.8.8,0,0,0,.379.681.813.813,0,0,0,.421.119.761.761,0,0,0,.357-.087l.914-.457a.8.8,0,0,0,.443-.718V8.035a.57.57,0,0,1,.137-.37l2.363-2.757A1.012,1.012,0,0,0,10.24,3.24Zm.247,1.221L8.123,7.222a1.248,1.248,0,0,0-.3.818v2.121a.105.105,0,0,1-.064.1l-.914.457a.1.1,0,0,1-.11,0,.116.116,0,0,1-.055-.1V8.04a1.248,1.248,0,0,0-.3-.818L4.013,4.465A.324.324,0,0,1,4.26,3.93H10.24a.324.324,0,0,1,.247.535Z" transform="translate(-3.25 -3.24)"/>
</svg>
