<svg xmlns="http://www.w3.org/2000/svg" width="20.717" height="25.896" viewBox="0 0 20.717 25.896">
  <defs>
    <style>
      .cls-1 {
        fill: #ff562a;
        fill-rule: evenodd;
      }
    </style>
  </defs>
  <g id="Group_21186" data-name="Group 21186" transform="translate(0)">
    <path id="pin" class="cls-1" d="M17.4,27.373c-.268-.22-.648-.541-1.1-.949a38.043,38.043,0,0,1-3.341-3.388C10.561,20.266,8,16.391,8,12.358a10.358,10.358,0,1,1,20.717,0c0,4.032-2.561,7.907-4.958,10.678a38.043,38.043,0,0,1-3.341,3.388c-.455.408-.836.729-1.1.949a1.691,1.691,0,0,1-.919.522h-.037a1.63,1.63,0,0,1-.956-.523Zm.956-18.467a3.884,3.884,0,1,0,3.884,3.884A3.884,3.884,0,0,0,18.358,8.906Z" transform="translate(-8 -2)"/>
  </g>
</svg>
