<svg xmlns="http://www.w3.org/2000/svg" width="284.228" height="405.834" viewBox="0 0 284.228 405.834">
  <defs>
    <style>
      .cls-1 {
        fill: #fff;
      }
    </style>
  </defs>
  <g id="Group_436" data-name="Group 436" transform="translate(0)">
    <path id="Path_48" data-name="Path 48" d="M149.819,103.86c-7.557-4.387-5.666-4.2-12.948.008-14.389,8.307-28.817,16.545-43.206,24.851-13.314,7.685-26.59,15.436-39.9,23.132-16.6,9.6-33.185,19.214-49.846,28.7-2.1,1.193-2.693,2.549-2.689,4.848V343.737l.016-.017v.017a3.494,3.494,0,0,0,2.046,3.6c3.127,1.642,117.069,67.635,137.266,79.317a5,5,0,0,0,5.489.066c21.55-12.507,113.195-65.481,137.477-79.443a3.357,3.357,0,0,0,1.831-2.3.2.2,0,0,0,.1-.157V181.075s-117.38-66.613-135.642-77.215m-11.957,296.4c-2-1.014-3.493-1.685-4.9-2.5-5.287-3.043-10.511-6.2-15.837-9.172a5.02,5.02,0,0,1-2.841-5.046q.108-104.939.049-209.879c0-1.274-.153-2.547-.276-4.462-2.925,1.619-5.3,2.886-7.635,4.235-3.981,2.306-7.872,4.778-11.927,6.944a3.785,3.785,0,0,0-2.345,3.905c.1,9.942.061,19.886.057,29.829q-.014,30.362-.038,60.726,0,46.6.029,93.208c0,1.655,0,3.311,0,5.532a22.149,22.149,0,0,1-2.9-1.081c-6.446-3.7-12.846-7.478-19.317-11.135-1.711-.967-1.864-2.365-1.861-4.036q.058-27.3.063-54.6.007-17.845-.029-35.69c0-1.036,0-2.072,0-3.326l-.039,0v-8.68a13.586,13.586,0,0,0,.016-2.764q.016-26.635-.016-53.269V195.8c-2.843,1.579-5.288,2.91-7.708,4.287-4,2.272-7.945,4.631-11.98,6.833-1.872,1.022-2.423,2.39-2.421,4.492q.084,64.988.033,129.975V346.7a7.547,7.547,0,0,1-2-.386c-6.389-3.638-12.738-7.343-19.133-10.969a4.818,4.818,0,0,1-2.638-4.732q.061-66.452-.067-132.9c-.005-2.56,1.048-3.853,3.048-5q15.56-8.883,31.06-17.869,28.63-16.533,57.253-33.077,10.7-6.173,21.465-12.246c2.486-1.41,2.993-1.117,3,1.853q.056,17.711.04,35.423.014,114.261.012,228.522c0,1.46-.126,2.92-.218,4.948M261.31,335.689c-15.49,8.871-30.923,17.842-46.382,26.768q-31.911,18.423-63.843,36.814a12.064,12.064,0,0,1-2.054.676V372.794l24.055-14.008.017-.011v.021c2.622-1.435,4.841-2.589,7-3.842q26.721-15.5,53.423-31.024c1.907-1.108,3.9-2.094,5.687-3.368a3.6,3.6,0,0,0,1.391-2.491c.085-13.848.032-27.7.089-41.546.009-2.1-1.051-2.574-2.811-2.565-4.261.02-8.522,0-12.784,0q-36.353,0-72.707,0c-2.046,0-2.948-.029-3.361-.666V128.01c2.872,1.559,5.329,2.822,7.719,4.2q23.075,13.323,46.128,26.687,22.72,13.128,45.46,26.222c4.747,2.741,9.45,5.561,14.227,8.248a3.438,3.438,0,0,1,1.909,3.434q-.064,12.747,0,25.494l-25.026-14.505a6.811,6.811,0,0,0-1.387-1.035c-8.378-4.752-16.705-9.595-25.05-14.4q-16.718-9.636-33.439-19.267l-.384-.223h0q-1.928-1.11-3.855-2.221c-.583-.337-1.208-.6-2.075-1.028V250.03c1.317.061,2.518.163,3.72.164q41.147.014,82.294.01c.977,0,1.953.032,2.93.02,1.56-.019,2.275.754,2.238,2.292-.016.709.012,1.42.012,2.13,0,25.212-.051,50.424.077,75.636.013,2.75-1.008,4.139-3.221,5.406" transform="translate(-1.233 -21.673)"/>
    <path id="Path_49" data-name="Path 49" d="M92.472,31.283c-7.078-1.426-9.563-3.314-9.941-7.55-.288-3.226,2.154-6.325,5.9-7.484a8.54,8.54,0,0,1,9.911,3.423c2.229,3.462,1.755,5.31-3.009,10.663,6.227,8.5,11.114,18.2,19.989,24.752,8.948,6.605,17.692,5.165,23.037-4.667,3.387-6.232,5.385-13.254,7.694-20.027,1.4-4.114,2.212-8.43,3.325-12.8-5.178-2.5-9.091-5.383-7.365-11.475C143.089,2.312,146.826,0,151.6,0c3.9,0,8.008,2.743,9,6.36,1.724,6.287-3.074,8.594-7.524,11.195,2.741,11.231,4.931,22.465,10.9,32.429,6.235,10.4,11.472,11.577,21.622,4.767a64.406,64.406,0,0,0,21.428-24.083c-3.018-3.584-6.3-7.207-2.289-11.975a8.879,8.879,0,0,1,10.332-2.006c3.345,1.463,5.1,4.1,4.781,7.213-.4,4-3.222,6.13-10.151,7.393-2.326,8.287-4.593,16.838-3.423,25.715,1.154,8.755,8.3,13.484,16.788,9.287,6.88-3.4,12.347-8.384,17.48-14.038A35.232,35.232,0,0,1,239.3,48.9c-.84-3.281.484-5.782,3.638-7.046a6.417,6.417,0,0,1,8.058,2.711,5.71,5.71,0,0,1-3.609,8.206,34.3,34.3,0,0,1-4.865.718c-10.739,11.094-26,51.307-26,51.307L153.79,67.806,85.577,104.793S65.176,59.567,60.7,53.6a50.8,50.8,0,0,1-5.268-.714c-3.742-.925-5.777-4.155-4.744-7.285,1.045-3.164,5.075-4.967,8.5-3.8,3.614,1.231,5.041,4.111,3.763,7.662-.271.756-.665,1.467-1.084,2.377,4.59,5.434,9.6,10.285,15.89,13.673a23.641,23.641,0,0,0,3.6,1.533c7.93,2.7,13.7-1,14.55-9.3a59.463,59.463,0,0,0-3.438-26.458" transform="translate(-11.826)"/>
    <path id="Path_50" data-name="Path 50" class="cls-1" d="M143.618,407.963c-2-1.014-3.494-1.685-4.9-2.5-5.287-3.044-10.51-6.2-15.836-9.172a5.021,5.021,0,0,1-2.841-5.047q.108-104.939.049-209.878c0-1.273-.153-2.548-.276-4.462-2.925,1.619-5.3,2.886-7.635,4.236-3.981,2.305-7.872,4.778-11.927,6.944a3.784,3.784,0,0,0-2.345,3.9c.1,9.942.061,19.886.057,29.83q-.014,30.362-.038,60.726,0,46.6.029,93.207c0,1.656,0,3.311,0,5.532a22.163,22.163,0,0,1-2.9-1.08c-6.446-3.7-12.846-7.478-19.317-11.134-1.711-.967-1.864-2.366-1.861-4.037q.057-27.3.063-54.6.007-17.844-.029-35.69c0-1.036,0-2.072,0-3.326l-.039,0v-8.681a13.523,13.523,0,0,0,.017-2.763q.016-26.634-.017-53.268V203.5c-2.843,1.579-5.288,2.911-7.708,4.287-4,2.272-7.945,4.631-11.98,6.834-1.872,1.022-2.423,2.39-2.421,4.493q.084,64.987.033,129.975c0,1.667,0,3.335,0,5.307a7.54,7.54,0,0,1-2-.387c-6.389-3.638-12.738-7.343-19.133-10.969a4.819,4.819,0,0,1-2.639-4.731q.062-66.454-.067-132.905c-.006-2.559,1.047-3.853,3.048-5q15.56-8.882,31.06-17.869,28.63-16.532,57.253-33.077,10.7-6.173,21.465-12.246c2.486-1.41,2.992-1.117,3,1.853q.058,17.711.041,35.424.013,114.261.012,228.521c0,1.461-.125,2.921-.218,4.948" transform="translate(-6.988 -29.374)"/>
    <path id="Path_51" data-name="Path 51" class="cls-1" d="M301.873,343.2c-15.49,8.871-30.923,17.842-46.382,26.768q-31.911,18.423-63.843,36.813a12.052,12.052,0,0,1-2.055.676V380.305L213.648,366.3l.017-.011v.021c2.622-1.435,4.841-2.589,7-3.842q26.721-15.5,53.423-31.024c1.907-1.108,3.9-2.094,5.687-3.368a3.6,3.6,0,0,0,1.391-2.491c.085-13.848.033-27.7.089-41.546.008-2.1-1.051-2.574-2.811-2.565-4.261.02-8.522,0-12.783,0q-36.354,0-72.707,0c-2.046,0-2.948-.03-3.362-.667V135.521c2.872,1.559,5.329,2.823,7.72,4.2q23.074,13.323,46.128,26.687,22.72,13.128,45.459,26.222c4.747,2.741,9.45,5.561,14.227,8.248a3.437,3.437,0,0,1,1.909,3.434q-.063,12.746,0,25.494L280.015,215.3a6.8,6.8,0,0,0-1.387-1.035c-8.378-4.752-16.705-9.595-25.05-14.4q-16.718-9.636-33.439-19.267l-.384-.223h0q-1.928-1.11-3.855-2.221c-.583-.336-1.208-.6-2.076-1.028v80.416c1.317.06,2.518.163,3.72.164q41.147.014,82.294.01c.977,0,1.953.032,2.93.021,1.56-.019,2.275.754,2.238,2.292-.016.71.012,1.42.012,2.131,0,25.212-.051,50.424.077,75.636.013,2.75-1.008,4.139-3.221,5.406" transform="translate(-41.796 -29.184)"/>
  </g>
</svg>
