<svg xmlns="http://www.w3.org/2000/svg" width="380.644" height="543.5" viewBox="0 0 380.644 543.5">
  <defs>
    <style>
      .cls-1 {
        fill: #888;
      }
    </style>
  </defs>
  <g id="Group_436" data-name="Group 436" transform="translate(0)">
    <path id="Path_48" data-name="Path 48" class="cls-1" d="M200.223,104.951c-10.12-5.875-7.588-5.621-17.341.011-19.27,11.125-38.592,22.158-57.862,33.281-17.83,10.292-35.609,20.672-53.431,30.978C49.362,182.077,27.146,194.953,4.834,207.66c-2.807,1.6-3.606,3.414-3.6,6.492V426.2l.022-.023v.023c-.019,2.291.648,3.72,2.739,4.818,4.188,2.2,156.781,90.578,183.83,106.223a6.7,6.7,0,0,0,7.352.088c28.861-16.75,151.593-87.693,184.111-106.391a4.5,4.5,0,0,0,2.453-3.084.264.264,0,0,0,.138-.21V208.36S224.68,119.15,200.223,104.951M184.21,501.9c-2.682-1.358-4.678-2.257-6.567-3.345-7.08-4.075-14.077-8.3-21.209-12.283-2.8-1.561-3.808-3.479-3.805-6.758q.145-140.536.066-281.073c0-1.706-.2-3.411-.37-5.975-3.917,2.168-7.1,3.865-10.224,5.672-5.332,3.089-10.542,6.4-15.972,9.3-2.318,1.239-3.166,2.61-3.14,5.23.136,13.315.082,26.632.077,39.948q-.019,40.662-.051,81.325,0,62.412.039,124.826c0,2.217,0,4.434,0,7.408a29.663,29.663,0,0,1-3.88-1.447c-8.632-4.953-17.2-10.015-25.869-14.912-2.292-1.295-2.5-3.167-2.493-5.405q.077-36.56.084-73.12.009-23.9-.039-47.8c0-1.387,0-2.775,0-4.455l-.053,0V307.42a18.194,18.194,0,0,0,.021-3.7q.022-35.67-.021-71.338v-4.3c-3.807,2.114-7.081,3.9-10.323,5.741-5.353,3.042-10.641,6.2-16.044,9.152-2.507,1.369-3.245,3.2-3.242,6.016q.112,87.034.044,174.066v7.108a10.106,10.106,0,0,1-2.679-.517c-8.556-4.873-17.059-9.835-25.623-14.69-2.541-1.442-3.536-3.346-3.533-6.338q.082-88.994-.09-177.988c-.007-3.429,1.4-5.161,4.081-6.689q20.838-11.9,41.6-23.93,38.342-22.141,76.674-44.3,14.334-8.267,28.746-16.4c3.329-1.888,4.008-1.5,4.02,2.481q.076,23.719.054,47.439.019,153.021.016,306.041c0,1.956-.168,3.911-.292,6.626m165.323-86.479c-20.744,11.881-41.413,23.895-62.116,35.848q-42.736,24.673-85.5,49.3a16.157,16.157,0,0,1-2.751.9V465.113l32.215-18.76.023-.014v.028c3.511-1.922,6.483-3.467,9.375-5.145q35.785-20.754,71.545-41.548c2.553-1.484,5.22-2.8,7.616-4.51a4.826,4.826,0,0,0,1.863-3.336c.113-18.546.043-37.093.119-55.639.012-2.813-1.407-3.447-3.765-3.435-5.706.027-11.413,0-17.12,0q-48.685,0-97.37,0c-2.739,0-3.948-.039-4.5-.892V137.294c3.846,2.088,7.137,3.78,10.338,5.628q30.9,17.843,61.776,35.739,30.428,17.581,60.88,35.116c6.357,3.67,12.655,7.448,19.052,11.046a4.6,4.6,0,0,1,2.557,4.6q-.085,17.07.006,34.142L320.26,244.139a9.122,9.122,0,0,0-1.858-1.386c-11.221-6.364-22.372-12.849-33.547-19.291q-22.389-12.9-44.782-25.8l-.515-.3h0q-2.582-1.486-5.163-2.974c-.781-.451-1.617-.8-2.779-1.376V300.706c1.763.081,3.372.219,4.982.22q55.105.019,110.209.014c1.308,0,2.616.043,3.924.027,2.089-.025,3.046,1.01,3,3.07-.022.95.016,1.9.016,2.853,0,33.764-.068,67.529.1,101.293.018,3.683-1.35,5.543-4.314,7.24" transform="translate(-1.233 5.115)"/>
    <path id="Path_49" data-name="Path 49" class="cls-1" d="M106.735,41.9c-9.478-1.909-12.807-4.438-13.313-10.111-.386-4.321,2.885-8.471,7.9-10.023a11.437,11.437,0,0,1,13.273,4.584c2.986,4.636,2.351,7.111-4.03,14.281C118.9,52.013,125.448,65,137.334,73.774c11.984,8.846,23.694,6.918,30.851-6.25,4.536-8.347,7.212-17.749,10.3-26.82,1.878-5.509,2.962-11.29,4.453-17.148-6.934-3.345-12.175-7.21-9.863-15.367C174.523,3.1,179.527,0,185.915,0c5.227,0,10.725,3.674,12.053,8.518,2.309,8.419-4.117,11.51-10.076,14.992,3.671,15.04,6.6,30.086,14.6,43.429,8.35,13.931,15.364,15.5,28.957,6.384a86.253,86.253,0,0,0,28.7-32.252c-4.042-4.8-8.431-9.652-3.066-16.037,3.182-3.787,8.912-4.841,13.837-2.687,4.48,1.96,6.824,5.5,6.4,9.66-.541,5.358-4.315,8.21-13.595,9.9-3.115,11.1-6.151,22.55-4.585,34.439,1.546,11.725,11.117,18.058,22.482,12.438,9.214-4.556,16.536-11.228,23.409-18.8a47.18,47.18,0,0,1-1.666-4.5c-1.125-4.393.648-7.744,4.872-9.436a8.594,8.594,0,0,1,10.791,3.631,7.647,7.647,0,0,1-4.834,10.989,45.94,45.94,0,0,1-6.515.961C293.3,86.487,272.863,140.34,272.863,140.34l-84.01-49.534L97.5,140.34S70.18,79.773,64.192,71.781a68.034,68.034,0,0,1-7.055-.956c-5.011-1.239-7.737-5.564-6.353-9.757,1.4-4.238,6.8-6.652,11.38-5.09,4.84,1.649,6.752,5.505,5.04,10.261-.364,1.012-.89,1.965-1.452,3.183C71.9,76.7,78.612,83.2,87.031,87.732a31.662,31.662,0,0,0,4.822,2.053c10.62,3.617,18.342-1.338,19.485-12.456a79.634,79.634,0,0,0-4.6-35.434" transform="translate(1.267)"/>
  </g>
</svg>
