<svg xmlns="http://www.w3.org/2000/svg" width="13.5" height="9.492" viewBox="0 0 13.5 9.492">
  <defs>
    <style>
      .cls-1 {
        fill: #676767;
      }
    </style>
  </defs>
  <g id="mail" transform="translate(0 -76)">
    <g id="Group_445" data-name="Group 445" transform="translate(0 76)">
      <path id="Path_351" data-name="Path 351" class="cls-1" d="M12.313,76H1.187A1.188,1.188,0,0,0,0,77.187v7.119a1.188,1.188,0,0,0,1.187,1.187H12.313A1.188,1.188,0,0,0,13.5,84.306V77.187A1.188,1.188,0,0,0,12.313,76Zm-.166.791L7.589,81.325a1.187,1.187,0,0,1-1.679,0L1.353,76.791ZM.791,84.145v-6.8l3.418,3.4Zm.562.557,3.417-3.4.582.579a1.978,1.978,0,0,0,2.8,0l.582-.579,3.417,3.4Zm11.356-.557-3.418-3.4,3.418-3.4Z" transform="translate(0 -76)"/>
    </g>
  </g>
</svg>
