<svg id="Money" xmlns="http://www.w3.org/2000/svg" width="19.133" height="15.059" viewBox="0 0 19.133 15.059">
  <path id="Path_101945" data-name="Path 101945" d="M22.791,14.732h-.847l-1.6-4.588a.316.316,0,0,0-.434-.195L6.132,14.732H4.342A.342.342,0,0,0,4,15.074v9.566a.342.342,0,0,0,.342.342h18.45a.342.342,0,0,0,.342-.342V15.074A.342.342,0,0,0,22.791,14.732Zm-2.976-4.042,1.4,4.042h-.362l-.584-1.671a.342.342,0,0,0-.434-.208A1.367,1.367,0,0,1,18.1,12a.342.342,0,0,0-.437-.2L9.244,14.732H8.219Zm.318,4.042H11.322l6.273-2.183a2.052,2.052,0,0,0,2.139,1.035ZM22.45,24.3H4.683V15.416H22.45Z" transform="translate(-4 -9.923)"/>
  <path id="Path_101946" data-name="Path 101946" d="M22.375,27.342A.342.342,0,0,0,22.033,27H9.05a.342.342,0,0,0-.342.342,1.367,1.367,0,0,1-1.367,1.367A.342.342,0,0,0,7,29.05v4.1a.342.342,0,0,0,.342.342,1.367,1.367,0,0,1,1.367,1.367.342.342,0,0,0,.342.342H22.033a.342.342,0,0,0,.342-.342,1.367,1.367,0,0,1,1.367-1.367.342.342,0,0,0,.342-.342v-4.1a.342.342,0,0,0-.342-.342A1.367,1.367,0,0,1,22.375,27.342ZM23.4,32.836a2.05,2.05,0,0,0-1.681,1.681H9.364a2.05,2.05,0,0,0-1.681-1.681V29.364a2.05,2.05,0,0,0,1.681-1.681H21.719A2.05,2.05,0,0,0,23.4,29.364Z" transform="translate(-5.975 -21.165)"/>
  <path id="Path_101947" data-name="Path 101947" d="M26.733,31a2.733,2.733,0,1,0,2.733,2.733A2.733,2.733,0,0,0,26.733,31Zm0,4.783a2.05,2.05,0,1,1,2.05-2.05A2.05,2.05,0,0,1,26.733,35.783Z" transform="translate(-17.167 -23.799)"/>
</svg>
