<svg xmlns="http://www.w3.org/2000/svg" width="18.755" height="15.235" viewBox="0 0 18.755 15.235">
  <g id="Group_21602" data-name="Group 21602" transform="translate(-1172 -943.825)">
    <g id="Layer_2" data-name="Layer 2" transform="translate(1171 937.5)">
      <path id="Path_101995" data-name="Path 101995" d="M2.349,22.675A1.356,1.356,0,0,1,1,21.326V10.232A2.8,2.8,0,0,1,3.792,7.44H16.956a2.8,2.8,0,0,1,2.8,2.792v7.394a2.8,2.8,0,0,1-2.792,2.8H5.984a.592.592,0,0,0-.346.115L3.164,22.408a1.363,1.363,0,0,1-.815.267ZM3.792,8.883a1.356,1.356,0,0,0-1.349,1.349V21.145l2.33-1.76a2.049,2.049,0,0,1,1.212-.4H16.956a1.356,1.356,0,0,0,1.356-1.356V10.232a1.356,1.356,0,0,0-1.349-1.349Z" transform="translate(0 -1.115)"/>
      <circle id="Ellipse_125" data-name="Ellipse 125" cx="0.721" cy="0.721" r="0.721" transform="translate(12.498 12.161)"/>
      <circle id="Ellipse_126" data-name="Ellipse 126" cx="0.721" cy="0.721" r="0.721" transform="translate(9.699 12.161)"/>
      <circle id="Ellipse_127" data-name="Ellipse 127" cx="0.721" cy="0.721" r="0.721" transform="translate(6.814 12.161)"/>
    </g>
  </g>
</svg>
