<svg xmlns="http://www.w3.org/2000/svg" width="15.727" height="15.848" viewBox="0 0 15.727 15.848">
  <defs>
    <style>
      .cls-1 {
        opacity: 0.15;
      }

      .cls-2 {
        fill: #fff;
      }

      .cls-3 {
        fill: #e7151f;
      }
    </style>
  </defs>
  <g id="verified_1_" data-name="verified (1)" transform="translate(-19.775 -19.312)">
    <g id="Group_21999" data-name="Group 21999" class="cls-1" transform="translate(19.775 19.317)">
      <path id="Path_102070" data-name="Path 102070" d="M24.406,36.122l-.451-.9a1.269,1.269,0,0,0-.725-.627l-.941-.314a1.275,1.275,0,0,1-.863-1.333l.1-1a1.205,1.205,0,0,0-.274-.921l-.627-.784a1.268,1.268,0,0,1,0-1.588l.627-.784a1.205,1.205,0,0,0,.274-.921l-.1-1a1.275,1.275,0,0,1,.863-1.333l.941-.314a1.269,1.269,0,0,0,.725-.627l.451-.9a1.259,1.259,0,0,1,.725-.627,1.237,1.237,0,0,0-1.294.686l-.451.9a1.269,1.269,0,0,1-.725.627l-.941.314a1.275,1.275,0,0,0-.863,1.333l.1,1a1.205,1.205,0,0,1-.274.921l-.627.784a1.268,1.268,0,0,0,0,1.588l.627.784a1.205,1.205,0,0,1,.274.921l-.1,1a1.275,1.275,0,0,0,.863,1.333l.941.314a1.269,1.269,0,0,1,.725.627l.451.9a1.291,1.291,0,0,0,1.451.666l.118-.02A1.347,1.347,0,0,1,24.406,36.122Z" transform="translate(-19.775 -21.585)"/>
      <path id="Path_102071" data-name="Path 102071" d="M57.3,19.959l.863-.51a1.2,1.2,0,0,1,.235-.1,1.271,1.271,0,0,0-.8.157l-.863.51a1.2,1.2,0,0,1-.235.1A1.176,1.176,0,0,0,57.3,19.959Z" transform="translate(-49.301 -19.339)"/>
      <path id="Path_102072" data-name="Path 102072" d="M79.874,91.839a1.157,1.157,0,0,0-.274.039l.706-.039a1.324,1.324,0,0,0,.274-.039Z" transform="translate(-67.873 -77.596)"/>
      <path id="Path_102073" data-name="Path 102073" d="M57.041,96.089l-.863-.51a1.266,1.266,0,0,0-.961-.137l-.118.02a1.435,1.435,0,0,1,.49.157l.863.51a1.258,1.258,0,0,0,1.059.1A.867.867,0,0,1,57.041,96.089Z" transform="translate(-48.175 -80.493)"/>
    </g>
    <g id="Group_22008" data-name="Group 22008">
      <path id="Path_102069" data-name="Path 102069" class="cls-2" d="M35.4,25.876l-.372.921a1.351,1.351,0,0,0,0,.961l.372.921a1.294,1.294,0,0,1-.451,1.529l-.823.568a1.394,1.394,0,0,0-.529.8l-.176.98a1.272,1.272,0,0,1-1.2,1.039l-1,.039a1.356,1.356,0,0,0-.882.392l-.686.725a1.283,1.283,0,0,1-1.568.235l-.863-.51a1.266,1.266,0,0,0-.961-.137l-.98.235a1.3,1.3,0,0,1-1.451-.666l-.451-.9a1.269,1.269,0,0,0-.725-.627l-.941-.314a1.275,1.275,0,0,1-.863-1.333l.1-1a1.205,1.205,0,0,0-.274-.921l-.627-.784a1.268,1.268,0,0,1,0-1.588l.627-.784a1.205,1.205,0,0,0,.274-.921l-.1-1a1.275,1.275,0,0,1,.863-1.333l.941-.314a1.269,1.269,0,0,0,.725-.627l.451-.9a1.291,1.291,0,0,1,1.451-.666l.98.235A1.278,1.278,0,0,0,27.229,20l.863-.51a1.257,1.257,0,0,1,1.568.235l.686.725a1.267,1.267,0,0,0,.882.392l1,.039a1.255,1.255,0,0,1,1.2,1.039l.176.98a1.209,1.209,0,0,0,.529.8l.823.568a1.408,1.408,0,0,1,.451,1.607Z"/>
      <g id="Group_22007" data-name="Group 22007" transform="translate(-1 0.317)">
        <rect id="Rectangle_1165" data-name="Rectangle 1165" class="cls-3" width="2" height="7" rx="1" transform="translate(30.725 23.736) rotate(45)"/>
        <rect id="Rectangle_1166" data-name="Rectangle 1166" class="cls-3" width="2" height="7" rx="1" transform="translate(25.775 25.15) rotate(-45)"/>
      </g>
    </g>
  </g>
</svg>
