<svg xmlns="http://www.w3.org/2000/svg" width="11.115" height="12.363" viewBox="0 0 11.115 12.363">
  <g id="right-arrow" transform="translate(-25.847 0)">
    <g id="Group_21331" data-name="Group 21331" transform="translate(25.847 0)">
      <path id="Path_101923" data-name="Path 101923" d="M36.914,6.369l.009-.018.008-.017.005-.014c0-.007.006-.015.008-.022l0-.013c0-.008,0-.016.006-.025s0-.011,0-.016,0-.015,0-.023,0-.026,0-.04,0-.026,0-.04,0-.016,0-.024,0-.01,0-.014,0-.019-.007-.028l0-.01c0-.009-.006-.018-.01-.027l0-.01-.011-.023-.006-.012L36.9,5.975l-.009-.014-.01-.013-.013-.018,0,0L36.846,5.9,31.06.116a.4.4,0,0,0-.56.56l5.111,5.111H26.243a.4.4,0,1,0,0,.791h9.369L30.5,11.688a.4.4,0,0,0,.56.56l5.786-5.786a.4.4,0,0,0,.063-.082Z" transform="translate(-25.847 0)"/>
    </g>
  </g>
</svg>
