<svg xmlns="http://www.w3.org/2000/svg" width="17.685" height="17.657" viewBox="0 0 17.685 17.657">
  <defs>
    <style>
      .cls-1 {
        fill: #fff;
      }
    </style>
  </defs>
  <g id="send" transform="translate(-1.357 -1.335)">
    <path id="Path_101891" data-name="Path 101891" class="cls-1" d="M12.46,18.992A1.905,1.905,0,0,1,10.8,17.973L7.92,12.7a.663.663,0,0,0-.282-.282L2.37,9.582a1.938,1.938,0,0,1,.348-3.554L16.445,1.447h0A1.947,1.947,0,0,1,18.93,3.932L14.316,17.667a1.914,1.914,0,0,1-1.657,1.317ZM16.8,2.631,3.074,7.213a.7.7,0,0,0-.48.6.688.688,0,0,0,.364.671L8.227,11.33a1.9,1.9,0,0,1,.787.787l2.817,5.269a.688.688,0,0,0,.671.364.7.7,0,0,0,.6-.48L17.712,3.543a.7.7,0,0,0-.911-.911Z" transform="translate(0)"/>
    <path id="Path_101892" data-name="Path 101892" class="cls-1" d="M9.541,12.8a.588.588,0,0,1-.439-.182.613.613,0,0,1,0-.878l9.742-9.775a.644.644,0,1,1,.911.911L9.98,12.614a.613.613,0,0,1-.439.182Z" transform="translate(-1.297 -0.075)"/>
  </g>
</svg>
