<svg xmlns="http://www.w3.org/2000/svg" width="15.727" height="15.848" viewBox="0 0 15.727 15.848">
  <defs>
    <style>
      .cls-1 {
        fill: #fff;
      }

      .cls-2 {
        fill: #07d97e;
      }
    </style>
  </defs>
  <g id="verified_1_" data-name="verified (1)" transform="translate(-19.775 -19.312)">
    <path id="Path_102069" data-name="Path 102069" class="cls-1" d="M35.4,25.876l-.372.921a1.351,1.351,0,0,0,0,.961l.372.921a1.294,1.294,0,0,1-.451,1.529l-.823.568a1.394,1.394,0,0,0-.529.8l-.176.98a1.272,1.272,0,0,1-1.2,1.039l-1,.039a1.356,1.356,0,0,0-.882.392l-.686.725a1.283,1.283,0,0,1-1.568.235l-.863-.51a1.266,1.266,0,0,0-.961-.137l-.98.235a1.3,1.3,0,0,1-1.451-.666l-.451-.9a1.269,1.269,0,0,0-.725-.627l-.941-.314a1.275,1.275,0,0,1-.863-1.333l.1-1a1.205,1.205,0,0,0-.274-.921l-.627-.784a1.268,1.268,0,0,1,0-1.588l.627-.784a1.205,1.205,0,0,0,.274-.921l-.1-1a1.275,1.275,0,0,1,.863-1.333l.941-.314a1.269,1.269,0,0,0,.725-.627l.451-.9a1.291,1.291,0,0,1,1.451-.666l.98.235A1.278,1.278,0,0,0,27.229,20l.863-.51a1.257,1.257,0,0,1,1.568.235l.686.725a1.267,1.267,0,0,0,.882.392l1,.039a1.255,1.255,0,0,1,1.2,1.039l.176.98a1.209,1.209,0,0,0,.529.8l.823.568a1.408,1.408,0,0,1,.451,1.607Z"/>
    <path id="Path_102075" data-name="Path 102075" class="cls-2" d="M39.4,50.625a1.013,1.013,0,0,1-.745-.333l-2.45-2.8a.986.986,0,1,1,1.47-1.313l1.843,2.1,4.293-3.45a.977.977,0,0,1,1.215,1.529l-5.018,4.058A1,1,0,0,1,39.4,50.625Z" transform="translate(-13.017 -20.338)"/>
  </g>
</svg>
