<svg xmlns="http://www.w3.org/2000/svg" width="42.307" height="54" viewBox="0 0 42.307 54">
  <defs>
    <style>
      .cls-1 {
        fill: #fff;
      }
    </style>
  </defs>
  <g id="Group_21529" data-name="Group 21529" transform="translate(-253 -2203)">
    <g id="price-tag_1_" data-name="price-tag (1)" transform="translate(197.568 2202.999)">
      <path id="Path_101859" data-name="Path 101859" class="cls-1" d="M96.948,40.923a.791.791,0,0,0,.791-.791V21.147A4.322,4.322,0,0,0,96.7,18.428L90.837,11.32a4.639,4.639,0,0,0-1.044-.936c.024-.242.037-.486.037-.732V.792a.791.791,0,1,0-1.582,0s0,8.935,0,8.973a3.916,3.916,0,0,0-.683-.06H77.331a4.062,4.062,0,0,0-2.058.573.8.8,0,0,0-.081.034l-7.711,3.756a4.133,4.133,0,0,0-1.924,2.024l-.012.029-3.188,8.087a.791.791,0,1,0,1.472.58l3.182-8.071a2.542,2.542,0,0,1,1.171-1.23L72.256,13.5l-4.066,4.927a4.208,4.208,0,0,0-.931,2.72V48.464a5.654,5.654,0,0,0,.079.933l-8.151-3.612a3.668,3.668,0,0,1-1.86-4.831l.01-.024,5.156-12.813a.791.791,0,1,0-1.468-.591l-5.151,12.8a5.252,5.252,0,0,0,2.672,6.9L68.1,51.467l.035.014A5.406,5.406,0,0,0,72.69,54H92.2a5.611,5.611,0,0,0,5.537-5.537V43.823a.791.791,0,0,0-1.582,0v4.641A4.008,4.008,0,0,1,92.2,52.419H72.69a3.908,3.908,0,0,1-3.85-3.955V21.147a2.612,2.612,0,0,1,.569-1.712l5.867-7.108a2.7,2.7,0,0,1,2.055-1.041h10.23a2.33,2.33,0,0,1,.444.044,5.958,5.958,0,0,1-3.378,3.8,2.478,2.478,0,1,0,.331,1.571,7.538,7.538,0,0,0,4.459-4.6c.069.069.136.142.2.219l5.867,7.108a2.742,2.742,0,0,1,.674,1.712V40.132a.791.791,0,0,0,.791.791ZM82.5,17.3a.9.9,0,1,1,.9-.9A.9.9,0,0,1,82.5,17.3Z"/>
      <path id="Path_101860" data-name="Path 101860" class="cls-1" d="M240.373,271.082a.788.788,0,0,0,.559-.232l13.5-13.5a.791.791,0,0,0-1.119-1.119l-13.5,13.5A.8.8,0,0,0,240.373,271.082Z" transform="translate(-164.729 -228.999)"/>
      <path id="Path_101861" data-name="Path 101861" class="cls-1" d="M233.1,261.855a3.428,3.428,0,1,0,0-6.855H233a3.428,3.428,0,1,0,0,6.855Zm-1.951-3.428A1.848,1.848,0,0,1,233,256.582h.105a1.846,1.846,0,1,1,0,3.691H233A1.848,1.848,0,0,1,231.15,258.428Z" transform="translate(-155.77 -228.105)"/>
      <path id="Path_101862" data-name="Path 101862" class="cls-1" d="M331,340.855h.105a3.428,3.428,0,0,0,0-6.855H331a3.428,3.428,0,1,0,0,6.855Zm0-5.273h.105a1.846,1.846,0,0,1,0,3.691H331a1.846,1.846,0,1,1,0-3.691Z" transform="translate(-243.434 -298.773)"/>
    </g>
  </g>
</svg>
