<svg xmlns="http://www.w3.org/2000/svg" width="47.333" height="37.866" viewBox="0 0 47.333 37.866">
  <defs>
    <style>
      .cls-1 {
        fill: #fff;
      }
    </style>
  </defs>
  <g id="Layer_2" data-name="Layer 2" transform="translate(-1.5 -3.5)">
    <path id="Path_101863" data-name="Path 101863" class="cls-1" d="M48.238,7.355,38.772,3.568a.947.947,0,0,0-.7,0L28.6,7.355a.947.947,0,0,0-.594.879v9.785a10.468,10.468,0,0,0,5.057,8.933l4.87,2.921a.947.947,0,0,0,.973,0l4.247-2.548v10.6A1.554,1.554,0,0,1,41.6,39.479H4.946a1.554,1.554,0,0,1-1.553-1.553V16.753H25.167a.947.947,0,0,0,0-1.893H3.393V12.626a1.554,1.554,0,0,1,1.553-1.553H25.167a.947.947,0,0,0,0-1.893H4.946A3.448,3.448,0,0,0,1.5,12.626V37.92a3.448,3.448,0,0,0,3.446,3.446H41.6a3.448,3.448,0,0,0,3.446-3.446V26.03a10.468,10.468,0,0,0,3.787-8.016V8.233a.947.947,0,0,0-.594-.878Zm-1.3,10.663A8.562,8.562,0,0,1,42.8,25.326l-4.381,2.63-4.381-2.63A8.562,8.562,0,0,1,29.9,18.018V8.873l8.52-3.408,8.52,3.408Z" transform="translate(0 0)"/>
    <path id="Path_101864" data-name="Path 101864" class="cls-1" d="M20.117,11.055a.947.947,0,1,0-1.34,1.339L21.3,14.917a.947.947,0,0,0,1.339,0L27.69,9.868a.947.947,0,0,0-1.34-1.339L21.971,12.91Z" transform="translate(15.186 4.244)"/>
    <path id="Path_101865" data-name="Path 101865" class="cls-1" d="M5.447,19.5a.947.947,0,1,0,0,1.893H13.02a.947.947,0,1,0,0-1.893Z" transform="translate(2.68 14.293)"/>
  </g>
</svg>
