<svg xmlns="http://www.w3.org/2000/svg" width="48.197" height="35.77" viewBox="0 0 48.197 35.77">
  <defs>
    <style>
      .cls-1 {
        fill: #fff;
      }
    </style>
  </defs>
  <g id="truck_1_" data-name="truck (1)" transform="translate(0 -66.008)">
    <g id="Group_21165" data-name="Group 21165" transform="translate(9.413 71.656)">
      <g id="Group_21164" data-name="Group 21164" transform="translate(0 0)">
        <path id="Path_101866" data-name="Path 101866" class="cls-1" d="M100.936,126.006a.941.941,0,1,0,.941.941A.942.942,0,0,0,100.936,126.006Z" transform="translate(-99.995 -126.006)"/>
      </g>
    </g>
    <g id="Group_21167" data-name="Group 21167" transform="translate(0 66.008)">
      <g id="Group_21166" data-name="Group 21166" transform="translate(0 0)">
        <path id="Path_101867" data-name="Path 101867" class="cls-1" d="M44.33,79.707l-1.362-2.724a2.809,2.809,0,0,0-2.526-1.561H32.569V68.832a2.827,2.827,0,0,0-2.824-2.824H2.824A2.827,2.827,0,0,0,0,68.832V93.306A2.827,2.827,0,0,0,2.824,96.13H5.648A5.625,5.625,0,0,0,7.091,99.9H.941a.941.941,0,0,0,0,1.883H47.254a.941.941,0,0,0,0-1.883H44.87a5.625,5.625,0,0,0,1.443-3.765c0-.054,0-.107,0-.161A2.828,2.828,0,0,0,48.2,93.306V88.1C48.2,87,48.413,88.029,44.33,79.707Zm-1.424,1.362,2.824,5.648h-9.4V81.069ZM1.883,88.6H3.765v1.883H1.883ZM11.3,99.9A3.77,3.77,0,0,1,7.531,96.13a3.716,3.716,0,0,1,.076-.754,3.765,3.765,0,0,1,7.378,0v0a3.7,3.7,0,0,1,.075.75A3.769,3.769,0,0,1,11.3,99.9Zm0-9.413a5.667,5.667,0,0,0-5.325,3.765H2.824a.942.942,0,0,1-.941-.941v-.941H4.707a.941.941,0,0,0,.941-.941V87.658a.941.941,0,0,0-.941-.941H1.883V68.832a.942.942,0,0,1,.941-.941H29.745a.942.942,0,0,1,.941.941V94.247H16.62A5.667,5.667,0,0,0,11.3,90.482ZM15.5,99.9a5.625,5.625,0,0,0,1.443-3.765H35.017A5.625,5.625,0,0,0,36.459,99.9H15.5Zm25.164,0A3.77,3.77,0,0,1,36.9,96.13a3.716,3.716,0,0,1,.076-.754,3.765,3.765,0,0,1,7.378,0v0a3.7,3.7,0,0,1,.075.75A3.769,3.769,0,0,1,40.665,99.9Zm5.648-6.589a.94.94,0,0,1-.39.761,5.648,5.648,0,0,0-10.583.18h-2.77V77.3h7.873a.937.937,0,0,1,.842.521l.681,1.362H35.393a.941.941,0,0,0-.941.941v7.531a.941.941,0,0,0,.941.941H46.312Z" transform="translate(0 -66.008)"/>
      </g>
    </g>
    <g id="Group_21169" data-name="Group 21169" transform="translate(13.178 71.656)">
      <g id="Group_21168" data-name="Group 21168" transform="translate(0 0)">
        <path id="Path_101868" data-name="Path 101868" class="cls-1" d="M152.8,126.006H140.935a.941.941,0,0,0,0,1.883H152.8a.941.941,0,0,0,0-1.883Z" transform="translate(-139.994 -126.006)"/>
      </g>
    </g>
    <g id="Group_21171" data-name="Group 21171" transform="translate(16.944 75.421)">
      <g id="Group_21170" data-name="Group 21170" transform="translate(0 0)">
        <path id="Path_101869" data-name="Path 101869" class="cls-1" d="M189.029,166h-8.1a.941.941,0,0,0,0,1.883h8.1a.941.941,0,0,0,0-1.883Z" transform="translate(-179.992 -166.004)"/>
      </g>
    </g>
    <g id="Group_21173" data-name="Group 21173" transform="translate(38.782 94.247)">
      <g id="Group_21172" data-name="Group 21172">
        <path id="Path_101870" data-name="Path 101870" class="cls-1" d="M413.866,366a1.883,1.883,0,1,0,1.883,1.883A1.885,1.885,0,0,0,413.866,366Z" transform="translate(-411.983 -365.996)"/>
      </g>
    </g>
    <g id="Group_21175" data-name="Group 21175" transform="translate(9.413 94.247)">
      <g id="Group_21174" data-name="Group 21174">
        <path id="Path_101871" data-name="Path 101871" class="cls-1" d="M101.879,366a1.883,1.883,0,1,0,1.883,1.883A1.885,1.885,0,0,0,101.879,366Z" transform="translate(-99.996 -365.996)"/>
      </g>
    </g>
  </g>
</svg>
