<svg xmlns="http://www.w3.org/2000/svg" width="35.765" height="35.759" viewBox="0 0 35.765 35.759">
  <defs>
    <style>
      .cls-1 {
        fill: #fff;
      }

      .cls-2 {
        fill: #07d97e;
      }
    </style>
  </defs>
  <g id="Group_21295" data-name="Group 21295" transform="translate(-11.699 -126.7)">
    <g id="Group_309" data-name="Group 309" transform="translate(3.699 126.7)">
      <g id="Group_216" data-name="Group 216" transform="translate(8)">
        <ellipse id="Ellipse_25" data-name="Ellipse 25" class="cls-1" cx="13.481" cy="12.941" rx="13.481" ry="12.941" transform="translate(4.314 4.938)"/>
        <g id="Layer_2" data-name="Layer 2">
          <g id="Color">
            <g id="_08.Whatsapp" data-name="08.Whatsapp">
              <path id="Icon" class="cls-2" d="M53.888,36A17.879,17.879,0,0,0,39.41,64.361L38.492,70.1,44.054,68.8A17.879,17.879,0,1,0,53.888,36Zm9.5,25.286-1.9,1.9c-2,2-7.313-.2-12.019-4.917s-6.817-10.012-4.912-11.993l1.9-1.9a2,2,0,0,1,2.7,0l2.807,2.8a1.864,1.864,0,0,1-.7,3.1,1.819,1.819,0,0,0-1.2,2.208,8.648,8.648,0,0,0,5.212,5.207,1.909,1.909,0,0,0,2.186-1.216,1.868,1.868,0,0,1,3.129-.7l2.8,2.807a2,2,0,0,1,0,2.7Z" transform="translate(-36.015 -36)"/>
            </g>
          </g>
        </g>
      </g>
    </g>
  </g>
</svg>
