<svg id="Group_21187" data-name="Group 21187" xmlns="http://www.w3.org/2000/svg" width="182.093" height="260" viewBox="0 0 182.093 260">
  <defs>
    <style>
      .cls-1 {
        fill: #fcfcfc;
      }
    </style>
  </defs>
  <g id="Group_436" data-name="Group 436" transform="translate(0)">
    <path id="Path_48" data-name="Path 48" class="cls-1" d="M96.426,102.7c-4.841-2.811-3.63-2.689-8.3.005-9.218,5.322-18.462,10.6-27.68,15.921-8.53,4.923-17.035,9.889-25.56,14.819-10.633,6.149-21.26,12.309-31.934,18.388a3.051,3.051,0,0,0-1.723,3.106v101.44l.011-.011v.011a2.238,2.238,0,0,0,1.311,2.3c2,1.052,75,43.331,87.941,50.815a3.2,3.2,0,0,0,3.517.042c13.806-8.013,72.519-41.951,88.075-50.9a2.151,2.151,0,0,0,1.173-1.475.126.126,0,0,0,.066-.1v-104.9s-75.2-42.676-86.9-49.469M88.766,292.6c-1.283-.65-2.238-1.08-3.141-1.6-3.387-1.949-6.734-3.971-10.146-5.876a3.216,3.216,0,0,1-1.82-3.233q.069-67.23.032-134.46c0-.816-.1-1.632-.177-2.858-1.874,1.037-3.4,1.849-4.891,2.713-2.551,1.477-5.043,3.061-7.641,4.449a2.425,2.425,0,0,0-1.5,2.5c.065,6.37.039,12.74.037,19.11q-.009,19.452-.025,38.9,0,29.857.019,59.714c0,1.061,0,2.121,0,3.544a14.187,14.187,0,0,1-1.856-.692c-4.13-2.37-8.23-4.791-12.375-7.134a2.5,2.5,0,0,1-1.192-2.586q.037-17.49.04-34.979,0-11.433-.019-22.865c0-.664,0-1.328,0-2.131l-.025,0V199.56a8.7,8.7,0,0,0,.01-1.77q.011-17.064-.01-34.127v-2.057c-1.821,1.012-3.388,1.864-4.938,2.746-2.561,1.455-5.09,2.967-7.675,4.378a2.831,2.831,0,0,0-1.551,2.878q.054,41.635.021,83.27v3.4a4.835,4.835,0,0,1-1.281-.247C24.565,255.7,20.5,253.326,16.4,251a3.087,3.087,0,0,1-1.69-3.032q.039-42.573-.043-85.146a3.276,3.276,0,0,1,1.952-3.2q9.968-5.691,19.9-11.448Q54.86,137.585,73.2,126.986q6.857-3.955,13.752-7.845c1.593-.9,1.917-.716,1.923,1.187q.036,11.347.026,22.694.009,73.2.008,146.4c0,.935-.08,1.871-.14,3.17m79.087-41.37c-9.924,5.684-19.811,11.431-29.715,17.149q-20.444,11.8-40.9,23.585a7.731,7.731,0,0,1-1.316.433V275l15.411-8.974.011-.007v.014c1.68-.919,3.1-1.658,4.485-2.461q17.119-9.928,34.226-19.876c1.222-.71,2.5-1.342,3.643-2.158a2.309,2.309,0,0,0,.891-1.6c.054-8.872.021-17.745.057-26.616.006-1.346-.673-1.649-1.8-1.643-2.73.013-5.46,0-8.19,0q-23.29,0-46.58,0c-1.311,0-1.889-.019-2.154-.427V118.175c1.84,1,3.414,1.808,4.945,2.692q14.783,8.536,29.552,17.1,14.556,8.411,29.124,16.8c3.041,1.756,6.054,3.563,9.114,5.284a2.2,2.2,0,0,1,1.223,2.2q-.041,8.166,0,16.333l-16.033-9.293a4.364,4.364,0,0,0-.889-.663c-5.368-3.044-10.7-6.147-16.048-9.228q-10.71-6.173-21.423-12.344l-.246-.143h0l-2.47-1.423c-.374-.216-.774-.385-1.33-.658v51.519c.844.039,1.613.1,2.383.105q26.361.009,52.722.007c.626,0,1.251.021,1.877.013,1-.012,1.457.483,1.434,1.468-.011.454.008.91.008,1.365,0,16.152-.033,32.3.049,48.457a3.486,3.486,0,0,1-2.064,3.463" transform="translate(-1.233 -50.05)"/>
    <path id="Path_49" data-name="Path 49" class="cls-1" d="M77.363,20.042c-4.534-.913-6.127-2.123-6.369-4.837-.185-2.067,1.38-4.052,3.779-4.795a5.471,5.471,0,0,1,6.35,2.193c1.428,2.218,1.125,3.4-1.928,6.832C83.184,24.882,86.315,31.094,92,35.292c5.733,4.232,11.335,3.309,14.759-2.99,2.17-3.993,3.45-8.491,4.929-12.83.9-2.636,1.417-5.4,2.13-8.2-3.317-1.6-5.824-3.449-4.718-7.351.69-2.436,3.084-3.916,6.14-3.917a6.152,6.152,0,0,1,5.766,4.075c1.1,4.028-1.97,5.506-4.82,7.172,1.756,7.2,3.159,14.393,6.984,20.776,3.994,6.664,7.35,7.417,13.852,3.054a41.262,41.262,0,0,0,13.728-15.429c-1.934-2.3-4.033-4.617-1.467-7.672a5.688,5.688,0,0,1,6.619-1.285c2.143.938,3.265,2.629,3.063,4.621-.259,2.563-2.064,3.928-6.5,4.736-1.49,5.309-2.943,10.787-2.193,16.475.739,5.609,5.318,8.639,10.755,5.95a38,38,0,0,0,11.2-8.994,22.57,22.57,0,0,1-.8-2.153,3.539,3.539,0,0,1,2.331-4.514,4.111,4.111,0,0,1,5.162,1.737,3.658,3.658,0,0,1-2.312,5.257,21.977,21.977,0,0,1-3.117.46c-6.88,7.108-16.655,32.87-16.655,32.87l-40.189-23.7-43.7,23.7s-13.07-28.974-15.935-32.8a32.545,32.545,0,0,1-3.375-.457c-2.4-.593-3.7-2.662-3.039-4.668a4.347,4.347,0,0,1,5.444-2.435,3.525,3.525,0,0,1,2.411,4.909c-.174.484-.426.94-.695,1.523a35.629,35.629,0,0,0,10.18,8.759,15.147,15.147,0,0,0,2.307.982c5.08,1.73,8.775-.64,9.321-5.959a38.1,38.1,0,0,0-2.2-16.951" transform="translate(-25.696)"/>
  </g>
</svg>
